OpenSim_Sub09_CSStiffKnee_RCS.mot
version=1
nRows=27
nColumns=11
inDegrees=no
endheader
time	Top_Thigh	Med_Thigh	Bot_Thigh	Top_Shank	2nd_Top_Shank	2nd_Bot_Shank	Bot_Shank	BNOx	BNOy	BNOZ
53.45000000	1856.89254941	1963.77015878	1716.79830581	1310.27359105	1462.95873180	1309.44926649	1307.90588255	13.81225060	-77.12741570	100.67617102
53.46000000	1857.38904457	1965.20503772	1718.00740949	1309.11225450	1463.16098886	1307.48451774	1308.34624270	-40.49351912	-77.08686381	100.38768033
53.47000000	1857.81002898	1967.29006415	1719.68948724	1308.43586449	1463.34866071	1306.17977820	1308.71878641	-77.81943176	-77.03450383	100.07762957
53.48000000	1858.20220629	1969.91791972	1721.79614870	1308.18615195	1463.51440581	1305.45336076	1309.03471588	-100.28227677	-76.96506590	99.74180369
53.49000000	1858.61247520	1972.98124366	1724.27895273	1308.30444762	1463.65087911	1305.22297571	1309.30511070	-110.01208438	-76.87327576	99.37598075
53.50000000	1859.08773442	1976.37267521	1727.08945819	1308.73208226	1463.75073558	1305.40633329	1309.54105044	-109.13888481	-76.75385911	98.97593881
53.51000000	1859.67488265	1979.98485359	1730.17922395	1309.41038662	1463.80663017	1305.92114380	1309.75361470	-99.79270828	-76.60154168	98.53745593
53.52000000	1860.42081861	1983.71041804	1733.49980886	1310.28069146	1463.81121783	1306.68511748	1309.95388304	-84.10358503	-76.41104919	98.05631015
53.53000000	1861.37244099	1987.44200779	1737.00277179	1311.28432753	1463.75715351	1307.61596461	1310.15293506	-64.20154527	-76.17710736	97.52827954
53.54000000	1862.57664851	1991.07226206	1740.63967160	1312.36262559	1463.63709217	1308.63139547	1310.36185033	-42.21661923	-75.89444191	96.94914214
53.55000000	1864.08033986	1994.49382009	1744.36206715	1313.45691638	1463.44368877	1309.64912031	1310.59170844	-20.27883713	-75.55777856	96.31467603
53.56000000	1865.93041375	1997.59932111	1748.12151730	1314.50853068	1463.16959825	1310.58684940	1310.85358896	-0.51822921	-75.16184304	95.62065925
53.57000000	1868.16970451	2000.28576184	1751.86820685	1315.46014443	1462.80830160	1311.36471507	1311.15819527	14.99506539	-74.70150914	94.86336885
53.58000000	1870.74756548	2002.55036145	1755.52071700	1316.28537336	1462.37227831	1311.95855681	1311.50757782	25.56840200	-74.17505645	94.05055866
53.59000000	1873.51986907	2004.49056150	1758.96602534	1316.98877291	1461.89300641	1312.39992133	1311.89513413	31.88663046	-73.58417036	93.20145929
53.60000000	1876.33842327	2006.20816109	1762.08973540	1317.57624377	1461.40278992	1312.72277734	1312.31388554	34.69449167	-72.93068433	92.33580035
53.61000000	1879.05503610	2007.80495930	1764.77745072	1318.05368661	1460.93393290	1312.96109361	1312.75685335	34.73672653	-72.21643183	91.47331144
53.62000000	1881.52151556	2009.38275520	1766.91477482	1318.42700208	1460.51873938	1313.14883886	1313.21705890	32.75807594	-71.44324632	90.63372217
53.63000000	1883.58966967	2011.04334788	1768.38731124	1318.70209087	1460.18951340	1313.31998184	1313.68752350	29.50328080	-70.61296127	89.83676214
53.64000000	1885.11130642	2012.88853641	1769.08066351	1318.88485364	1459.97855901	1313.50849129	1314.16126847	25.71708202	-69.72741014	89.10216095
53.65000000	1885.93823382	2015.02011989	1768.88043516	1318.98119106	1459.91818025	1313.74833594	1314.63131513	22.14422050	-68.78842639	88.44964821
53.66000000	1885.92269686	2017.53950745	1767.67305132	1318.99701923	1460.04057299	1314.07337040	1315.09066170	19.52815079	-67.79784920	87.89891805
53.67000000	1885.00957858	2020.46544352	1765.51911742	1318.94152334	1460.35500277	1314.49325337	1315.52740851	18.33962123	-66.75872733	87.46214347
53.68000000	1883.35044979	2023.63223659	1762.86785815	1318.83118241	1460.81957453	1314.96365923	1315.91872809	18.44093658	-65.67680831	87.13471687
53.69000000	1881.12484753	2026.84923976	1760.22108090	1318.68346237	1461.38547083	1315.43295796	1316.24031437	19.61207519	-64.55820485	86.90976013
53.70000000	1878.51230881	2029.92580612	1758.08059309	1318.51582915	1462.00387423	1315.84951950	1316.46786125	21.63301542	-63.40902964	86.78039510
53.71000000	1875.69237066	2032.67128878	1756.94820211	1318.34574867	1462.62596730	1316.16171384	1316.57706266	24.28373561	-62.23539538	86.73974366
